<?xml version="1.0" encoding="UTF-8"?>
<svg baseProfile="tiny" version="1.2" id="_1500_x_1500_px_Logo_1"  xmlns="http://www.w3.org/2000/svg" viewBox="0 0 1500 1500">
  <defs>
    <style>
      .cls-1 {
        fill: url(#Gradiente_sem_nome_56-5);
      }

      .cls-1, .cls-2, .cls-3, .cls-4, .cls-5 {
        stroke-width: 0px;
      }

      .cls-2 {
        fill: url(#Gradiente_sem_nome_56);
      }

      .cls-3 {
        fill: url(#Gradiente_sem_nome_56-3);
      }

      .cls-4 {
        fill: url(#Gradiente_sem_nome_56-2);
      }

      .cls-5 {
        fill: url(#Gradiente_sem_nome_56-4);
      }
    </style>
    <linearGradient id="Gradiente_sem_nome_56" x1="905.89" y1="303.98" x2="905.89" y2="1054.56" gradientUnits="userSpaceOnUse">
      <stop offset="0" stop-color="#4487c7"/>
      <stop offset=".08" stop-color="#3e7bb5"/>
      <stop offset=".25" stop-color="#326494"/>
      <stop offset=".43" stop-color="#295279"/>
      <stop offset=".61" stop-color="#234666"/>
      <stop offset=".8" stop-color="#1f3e5b"/>
      <stop offset="1" stop-color="#1e3c58"/>
    </linearGradient>
    <linearGradient id="Gradiente_sem_nome_56-2"  x1="771.51" y1="852.07" x2="771.51" y2="112.68" />
    <linearGradient id="Gradiente_sem_nome_56-3"  x1="218.78" y1="548.93" x2="1001.66" y2="548.93"/>
    <linearGradient id="Gradiente_sem_nome_56-4"  x1="510.86" y1="1346" x2="510.86" y2="390.22" />
    <linearGradient id="Gradiente_sem_nome_56-5"  x1="343.95" y1="888.78" x2="1281.22" y2="888.78" />
  </defs>
  <path class="cls-2" d="M1281.16,652.44v.9c-.6,50.41-10.54,100.73-29.79,148.14-19.82,48.82-49.54,94.55-89.12,134.14-17.1,17.1-35.34,32.36-54.49,45.76-83.78,58.71-184.78,82.1-282.26,70.15-23.55-2.88-46.88-7.83-69.71-14.82-.34-.11-.66-.2-.99-.31t-.02,0c-61.05-18.87-118.51-52.46-166.84-100.79-22.21-22.21-41.31-46.36-57.32-71.9,70.21,43.95,150.97,64.4,230.97,61.33h.05c7.36-.28,14.7-.76,22.04-1.45,68.09-6.32,134.89-29.79,193.41-70.4.41-.31.86-.6,1.3-.92.01-.02.03-.02.05-.03.09-.06.17-.12.26-.18,19.1-13.38,37.29-28.6,54.35-45.67,21.27-21.27,39.69-44.32,55.24-68.67v-.02c19.33-30.24,34.27-62.48,44.8-95.8,7.46-23.64,12.71-47.85,15.77-72.26,8-64.28.64-130.09-22.08-191.51-9.45-25.59-21.58-50.41-36.37-74.05-.01-.03-.05-.08-.06-.11l3.09,1.97.15.09c24.35,15.55,47.41,33.98,68.69,55.26,21.75,21.76,40.53,45.38,56.31,70.34v.02c36.78,58.13,57.37,123.59,61.74,189.89v.08c.67,10.26.96,20.54.86,30.82Z"/>
  <path class="cls-4" d="M1148.83,569.65c-3.06,24.41-8.3,48.62-15.77,72.26-10.52,33.33-25.46,65.56-44.8,95.8v.02c-15.55,24.35-33.97,47.4-55.24,68.67-17.07,17.07-35.25,32.29-54.35,45.67l1.44-1.85.78-.99-1.71,1.67v.02h-.03c1.09-1.93,2.14-3.85,3.2-5.8,0,0,.02,0,.02-.02,2.08-3.87,4.1-7.75,6.06-11.68t.02-.02c1.94-3.92,3.82-7.86,5.64-11.82,6.39-13.9,11.94-28.08,16.65-42.49.69-2.06,1.35-4.13,1.99-6.19,1.93-6.19,3.69-12.43,5.31-18.69,1.62-6.27,3.09-12.57,4.4-18.9.44-2.1.86-4.22,1.27-6.33.41-2.11.8-4.22,1.16-6.35.73-4.22,1.41-8.44,2.02-12.68.31-2.14.6-4.28.86-6.44.8-6.36,1.45-12.74,1.97-19.13,0-.02.02-.05,0-.08,1.12-14.18,1.5-28.42,1.12-42.64-.03-1.25-.06-2.51-.11-3.76,0-.11,0-.21-.02-.32-.29-7.88-.8-15.74-1.53-23.58-.08-.8-.15-1.58-.23-2.37-.12-1.12-.23-2.22-.35-3.33-.21-2.06-.46-4.13-.72-6.18-.14-1.12-.28-2.22-.41-3.33-.03-.24-.06-.49-.11-.73-.2-1.44-.4-2.86-.6-4.3,0-.05-.02-.08-.02-.12-.21-1.48-.44-2.97-.67-4.45-.47-3.01-.98-6.03-1.51-9.04-.15-.84-.31-1.7-.47-2.54-.2-1.07-.4-2.14-.61-3.21-.31-1.59-.63-3.17-.95-4.74-.35-1.74-.72-3.47-1.12-5.22-.32-1.48-.66-2.97-1.01-4.45-.44-1.97-.92-3.95-1.42-5.92-.28-1.12-.55-2.25-.84-3.36-.32-1.24-.64-2.48-.98-3.72-.31-1.15-.61-2.28-.93-3.43-.05-.18-.11-.38-.17-.58-.34-1.27-.7-2.54-1.09-3.81-.09-.4-.21-.78-.34-1.18-.35-1.25-.72-2.49-1.12-3.73-.81-2.74-1.67-5.46-2.55-8.18-.4-1.22-.81-2.45-1.22-3.67-.37-1.09-.73-2.17-1.12-3.26-.4-1.18-.81-2.36-1.24-3.53-.49-1.38-.98-2.75-1.5-4.13-.12-.34-.24-.69-.38-1.02-.47-1.32-.96-2.62-1.48-3.93-.57-1.51-1.16-3.03-1.76-4.53-.2-.21-.38-.43-.58-.64,0,0,0-.02-.01-.03-.02-.03-.03-.06-.05-.12-.05-.09-.09-.23-.17-.4,0-.02-.02-.05-.03-.08-.08-.17-.15-.37-.26-.61-.08-.2-.17-.43-.28-.67-.31-.73-.7-1.68-1.19-2.8-.31-.75-.67-1.58-1.06-2.48-.26-.6-.54-1.22-.83-1.9-.29-.66-.6-1.35-.92-2.06-.4-.92-.83-1.9-1.28-2.91-.63-1.41-1.3-2.89-2.02-4.44-.06-.12-.11-.24-.17-.37-.31-.67-.63-1.38-.95-2.08-.69-1.47-1.41-2.98-2.14-4.56-.49-1.04-.99-2.1-1.51-3.17-.78-1.62-1.59-3.27-2.42-4.94-.38-.75-.75-1.51-1.13-2.26-.37-.76-.76-1.53-1.16-2.29-.12-.23-.23-.47-.35-.7-.46-.92-.93-1.85-1.41-2.77-.63-1.21-1.27-2.43-1.91-3.66-.52-.98-1.04-1.96-1.58-2.94-1.85-3.46-3.79-6.93-5.77-10.32-.55-.93-1.1-1.87-1.65-2.78-.61-1.04-1.24-2.08-1.88-3.1-.55-.9-1.1-1.8-1.67-2.68-.4-.63-.8-1.25-1.19-1.87-.31-.47-.61-.93-.92-1.41-.41-.64-.84-1.27-1.25-1.88-.57-.84-1.13-1.67-1.7-2.48-.37-.54-.75-1.07-1.13-1.59-.6-.84-1.19-1.65-1.79-2.45-.05-.08-.11-.15-.15-.23h-.02c-.5-.76-1.02-1.51-1.54-2.26-2.65-3.79-5.35-7.54-8.15-11.26-3.72-4.94-7.56-9.83-11.53-14.65-8.93-10.83-18.52-21.3-28.75-31.38-27.99-27.54-58.94-50.21-91.86-68h-.02c-24.33-13.17-49.71-23.64-75.7-31.47-117.44-35.33-247.62-16.3-351.13,56.74,11.65-20.71,25.23-40.64,40.8-59.48,7.56-9.16,15.6-18.08,24.09-26.7,157.34-159.82,414.46-161.84,574.3-4.51,1.91,1.88,3.81,3.79,5.67,5.72,19.97,20.43,37.39,42.49,52.18,65.73.63.98,1.61,2.19,2.22,3.17.02.03.05.08.06.11,14.79,23.64,26.92,48.47,36.37,74.05,22.73,61.42,30.08,127.23,22.08,191.51Z"/>
  <path class="cls-3" d="M1001.66,501.32c-29.88-32.79-66.19-59.6-106.97-78.38-15.14-7-30.91-12.88-47.18-17.56-.28-.12-.57-.21-.84-.32-.23-.08-.46-.17-.69-.26-.89-.31-1.77-.63-2.66-.93-.35-.12-.7-.24-1.06-.37-.47-.17-.95-.32-1.44-.47-.75-.26-1.51-.52-2.29-.76-.75-.26-1.5-.5-2.26-.75h-.03s-.03-.02-.05-.02c-3.55-.87-7.11-1.68-10.71-2.43h-.03c-3.2-.67-6.42-1.32-9.65-1.9-13.81-2.49-27.91-4.14-42.26-4.86-14.54-1.35-29.3-2.02-44.2-2.02-117.29,0-224.79,41.98-308.28,111.72-.09.08-.17.15-.26.21-.32.29-.64.57-.95.84-1.07.93-2.14,1.88-3.21,2.83-1.06.95-2.13,1.91-3.18,2.88-1.06.95-2.11,1.91-3.17,2.89-5.11,4.68-10.14,9.51-15.09,14.47-18.46,18.46-35.19,37.99-50.18,58.39-33.26,45.22-58.06,94.73-74.34,146.33-8.61,27.22-14.85,55.06-18.73,83.14-.84,6.06-1.56,12.11-2.19,18.2-.02.09-.02.2-.03.29-.55,5.48-.99,10.95-1.36,16.46v.02c-.08.95-.14,1.88-.2,2.83l-8.15-33.08-.28-1.09v-.02c-13.63-54.09-20.66-108.22-20.97-161.06v-1.16c0-2.58,0-5.14.03-7.72,0-.67,0-1.35.02-2.02,1.19-74.39,22.68-148.53,64.59-213.41,14.79-22.93,32.15-44.7,52.05-64.92,17.39-17.68,36-33.43,55.59-47.24,103.51-73.04,233.69-92.07,351.13-56.74,26,7.83,51.37,18.31,75.7,31.47h.02c32.91,17.79,63.87,40.45,91.86,68,10.23,10.08,19.82,20.55,28.75,31.38,3.98,4.82,7.81,9.71,11.53,14.65,2.8,3.72,5.51,7.46,8.15,11.26.52.75,1.04,1.5,1.54,2.26.06.08.11.15.17.23.6.8,1.19,1.61,1.79,2.45.38.52.76,1.06,1.13,1.59.57.81,1.13,1.64,1.7,2.48.41.61.84,1.24,1.25,1.88.31.47.61.93.92,1.41.4.61.8,1.24,1.19,1.87.57.89,1.12,1.77,1.67,2.68.64,1.02,1.27,2.06,1.88,3.1.55.92,1.1,1.85,1.65,2.78,1.97,3.4,3.92,6.87,5.77,10.32.54.98,1.06,1.96,1.58,2.94.64,1.22,1.28,2.45,1.91,3.66.47.93.95,1.85,1.41,2.77.12.23.23.47.35.7.4.76.78,1.53,1.16,2.29.38.75.75,1.51,1.13,2.26.83,1.67,1.64,3.32,2.42,4.94.52,1.07,1.02,2.13,1.51,3.17.73,1.58,1.45,3.09,2.14,4.56.32.7.64,1.41.95,2.08.06.12.11.24.17.37.72,1.54,1.39,3.03,2.02,4.44.46,1.01.89,1.99,1.28,2.91.32.72.63,1.41.92,2.06.29.67.57,1.3.83,1.9.38.9.75,1.73,1.06,2.48.49,1.12.89,2.06,1.19,2.8.11.24.2.47.28.67.11.24.18.44.26.61.02.03.03.06.03.08.08.17.12.31.17.4.02.06.03.09.05.12Z"/>
  <path class="cls-5" d="M773.55,392.24c-6.56-.35-13.18-.49-19.85-.44h-.44c-.21,0-.41,0-.63.02-.64,0-1.3.02-1.94.03l-.28-.02c.24-.02.5-.02.75-.02-.21-.02-.41-.02-.63-.02h-.57c-11.58,0-23.03.49-34.37,1.44-.34.02-.66.05-.98.08-3.66.32-7.3.67-10.92,1.09-40.48,4.6-79.15,15.14-115.1,30.74-11.13,4.83-22.01,10.14-32.59,15.91-10.58,5.75-20.88,11.98-30.86,18.64h-.02c-107.9,71.87-179.44,193.99-181.22,332.95-.03,1.74-.03,3.49-.03,5.25s0,3.5.03,5.25c1.8,227.76,120.94,427.54,299.94,541.89.5.34,1.02.66,1.53.98-.58-.34-1.15-.67-1.73-1.01-63.55-37-124.48-83.57-180.31-139.4-105.04-105.07-177.27-228.09-214.82-352.72-.12-.38-.24-.76-.35-1.15.06-.95.12-1.88.2-2.83v-.02c.37-5.51.81-10.98,1.36-16.46.02-.09.02-.2.03-.29.63-6.09,1.35-12.14,2.19-18.2,3.88-28.08,10.12-55.91,18.73-83.14,16.29-51.6,41.08-101.11,74.34-146.33,14.99-20.4,31.72-39.93,50.18-58.39,4.96-4.96,9.99-9.79,15.09-14.47,1.06-.98,2.11-1.94,3.17-2.89,1.06-.96,2.13-1.93,3.18-2.88,1.07-.95,2.14-1.9,3.21-2.83.31-.28.63-.55.95-.84.09-.06.17-.14.26-.21,83.49-69.74,190.99-111.72,308.28-111.72,14.9,0,29.65.67,44.2,2.02Z"/>
  <path class="cls-1" d="M1281.22,651.71c.09,59.78-8.43,121.31-25.34,182.62-35.99,130.38-109.93,259.84-219.77,369.68-76.36,76.36-162.22,135.38-251.31,176.35-7.54,3.47-15.49,5.77-23.55,6.88-8.01.14-16.04.08-24.06-.17-7.69-1.16-15.26-3.4-22.47-6.71-23.34-10.74-46.48-22.73-69.27-35.94-179.86-114.2-299.67-314.47-301.47-542.87-.03-1.74-.03-3.49-.03-5.25s0-3.5.03-5.25c2.1-164.65,102.18-305.69,244.63-367.48,35.96-15.6,74.62-26.14,115.1-30.74,15.2-1.73,30.66-2.62,46.33-2.62.4,0,.8,0,1.19.02h-.69c-.08,0-.17,0-.24.02-5.15.03-10.28.18-15.36.46-2.11.11-4.22.24-6.32.4-3.24.23-6.48.5-9.7.84-4.74.47-9.45,1.04-14.13,1.73-.84.12-1.68.24-2.51.37-2.34.35-4.65.73-6.96,1.13-2,.35-4.01.72-6,1.1-5.78,1.12-11.5,2.37-17.16,3.78-2.65.66-5.28,1.35-7.89,2.06-1.35.37-2.68.75-4.01,1.13-5.23,1.51-10.41,3.15-15.54,4.89-3.87,1.33-7.72,2.72-11.53,4.19-2.51.96-5,1.96-7.46,2.98-.03.02-.05.02-.06.02-121.08,50.01-206.3,169.24-206.3,308.37,0,178.59,140.38,324.4,316.81,333.09.61.03,1.24.06,1.87.09.64.03,1.28.05,1.93.08,5.08.24,10.17.35,15.29.35,2.86,0,5.72-.03,8.55-.11h.06c9.16-.34,18.29-.95,27.42-1.8,11.58-1.25,22.99-3.07,34.17-5.49h.02s.05-.02.06-.02c8.23,1.01,16.47,1.76,24.73,2.28.01-.02.03-.02.06,0,23.52,1.42,47.17.83,70.61-1.82,39.26-4.44,77.98-14.58,114.86-30.45,25.01-10.75,49.14-24.13,72-40.16,2.39-1.67,4.77-3.38,7.14-5.11,16.55-12.13,32.39-25.69,47.35-40.65,39.58-39.6,69.3-85.32,89.12-134.14,19.25-47.41,29.2-97.73,29.79-148.14Z"/>
</svg>
